#!OML:ASF G:\JayActor3\Patient Classification 1\Patient 1\Session 6\male.ASF
:FULLY-SPECIFIED
:DEGREES
1556
root 5.57249 16.4844 -23.396 536.93 -65.0241 -530.962
lowerback 5.46671 0.927424 3.98976
upperback 1.53442 1.40917 -0.314742
thorax -1.3775 0.683325 -2.65374
lowerneck 15.8598 1.14533 -0.840707
upperneck -20.568 2.41687 5.62222
head -9.17112 0.458988 1.78553
rclavicle -3.69739e-014 -1.39149e-014
rhumerus -11.9174 17.6573 -51.6904
rradius 124.6
rwrist 3.14815
rhand -48.3851 -7.80072
rfingers 7.12502
rthumb -21.0384 -36.6795
lclavicle -3.69739e-014 -1.39149e-014
lhumerus 13.5501 -35.231 78.0576
lradius 130.681
lwrist 19.4315
lhand -47.8447 -13.0406
lfingers 7.12502
lthumb -20.5192 15.8951
rfemur -20.7474 0.526922 27.5248
rtibia 34.94
rfoot -22.9463 -12.1386
rtoes 11.4935
lfemur -15.8503 7.03004 -16.4919
ltibia 26.9142
lfoot -14.9155 -4.64347
ltoes 4.74275
1557
root 5.57211 16.4841 -23.399 536.926 -65.0558 -530.969
lowerback 5.4465 0.925069 3.98954
upperback 1.52974 1.40556 -0.308982
thorax -1.37147 0.681672 -2.64707
lowerneck 15.8377 1.10916 -0.825456
upperneck -20.5661 2.36042 5.57993
head -9.16339 0.436683 1.77539
rclavicle -2.39039e-014 2.50469e-014
rhumerus -11.9017 17.6769 -51.7039
rradius 124.526
rwrist 3.19447
rhand -48.4323 -7.78128
rfingers 7.12502
rthumb -21.0838 -36.655
lclavicle -2.39039e-014 2.50469e-014
lhumerus 13.4187 -34.7565 78.0673
lradius 130.607
lwrist 19.5981
lhand -47.9855 -13.4437
lfingers 7.12502
lthumb -20.6545 15.4774
rfemur -20.7334 0.504599 27.5272
rtibia 34.9463
rfoot -22.957 -12.1426
rtoes 11.4766
lfemur -15.8334 7.02187 -16.485
ltibia 26.9056
lfoot -14.9037 -4.68824
ltoes 4.77835
1558
root 5.5717 16.4838 -23.4021 536.926 -65.0919 -530.982
lowerback 5.43555 0.926704 3.99699
upperback 1.50955 1.40864 -0.31217
thorax -1.3857 0.682848 -2.65476
lowerneck 15.8573 1.06353 -0.793366
upperneck -20.5752 2.29667 5.53846
head -9.16686 0.408877 1.76379
rclavicle -2.48481e-015 2.38542e-015
rhumerus -11.9297 17.6949 -51.737
rradius 124.455
rwrist 3.24796
rhand -48.4921 -7.75183
rfingers 7.12502
rthumb -21.1411 -36.6192
lclavicle -2.48481e-015 2.38542e-015
lhumerus 13.2483 -34.2905 78.0915
lradius 130.537
lwrist 19.7857
lhand -48.0901 -13.9528
lfingers 7.12502
lthumb -20.755 14.9572
rfemur -20.7183 0.47779 27.5262
rtibia 34.9538
rfoot -22.9725 -12.1398
rtoes 11.4823
lfemur -15.8144 7.01197 -16.481
ltibia 26.895
lfoot -14.8893 -4.73834
ltoes 4.82502
1559
root 5.57123 16.4835 -23.4054 536.925 -65.134 -530.996
lowerback 5.43016 0.922539 3.99809
upperback 1.49421 1.4037 -0.311529
thorax -1.39887 0.680049 -2.6545
lowerneck 15.8535 1.02453 -0.771971
upperneck -20.582 2.23968 5.50171
head -9.16564 0.384739 1.75473
rclavicle 1.55549e-014 -2.78299e-015
rhumerus -11.9355 17.7139 -51.7666
rradius 124.382
rwrist 3.2935
rhand -48.5404 -7.71522
rfingers 7.12502
rthumb -21.1876 -36.5774
lclavicle 1.55549e-014 -2.78299e-015
lhumerus 13.0804 -33.8126 78.107
lradius 130.466
lwrist 19.9136
lhand -48.2004 -14.4864
lfingers 7.12502
lthumb -20.861 14.412
rfemur -20.6999 0.446699 27.5242
rtibia 34.9631
rfoot -22.9931 -12.1367
rtoes 11.4919
lfemur -15.7912 7.00385 -16.4778
ltibia 26.8817
lfoot -14.8704 -4.79702
ltoes 4.87372
1560
root 5.57084 16.4832 -23.4088 536.929 -65.1798 -531.016
lowerback 5.4305 0.91593 3.99329
upperback 1.47903 1.39541 -0.309938
thorax -1.4155 0.675502 -2.64987
lowerneck 15.8335 0.990001 -0.752168
upperneck -20.5843 2.18829 5.46679
head -9.16017 0.363349 1.7458
rclavicle 3.59303e-014 -1.70955e-014
rhumerus -11.9337 17.7313 -51.7987
rradius 124.307
rwrist 3.33255
rhand -48.575 -7.68181
rfingers 7.12502
rthumb -21.2208 -36.5402
lclavicle 3.59303e-014 -1.70955e-014
lhumerus 12.9051 -33.3488 78.1165
lradius 130.393
lwrist 19.9414
lhand -48.3369 -14.9337
lfingers 7.12502
lthumb -20.9921 13.9503
rfemur -20.6825 0.417364 27.5198
rtibia 34.9744
rfoot -23.0174 -12.1385
rtoes 11.5065
lfemur -15.7673 6.99588 -16.4768
ltibia 26.8661
lfoot -14.8483 -4.86301
ltoes 4.92549
